<svg width="27" height="36" viewBox="0 0 27 36" fill="none" xmlns="http://www.w3.org/2000/svg">
<path d="M27 13.535C27 19.6963 18.7734 30.6653 15.1664 35.1911C14.3016 36.2696 12.6984 36.2696 11.8336 35.1911C8.16328 30.6653 0 19.6963 0 13.535C0 6.05974 6.04406 0 13.5 0C20.9531 0 27 6.05974 27 13.535Z" fill="#3AB795"/>
<path d="M16.5139 16.4284C16.5137 15.82 16.1564 15.3003 15.646 15.0645L15.0457 14.787L15.3124 15.3922C15.3697 15.5221 15.403 15.659 15.403 15.8028C15.403 16.3221 14.9667 16.7697 14.4308 16.7697C14.2939 16.7697 14.1625 16.7363 14.0367 16.6782L13.4369 16.4009L13.703 17.0058C13.9309 17.5238 14.4387 17.8958 15.0419 17.8958C15.8533 17.8958 16.5166 17.2637 16.5139 16.4284ZM16.5139 16.4284C16.5139 16.4283 16.5139 16.4281 16.5139 16.428L16.2639 16.4289H16.5139C16.5139 16.4287 16.5139 16.4286 16.5139 16.4284ZM15.5412 15.2914L15.7699 15.1906C15.8151 15.2932 15.8513 15.4025 15.8745 15.5179C15.7768 15.4251 15.6643 15.3483 15.5412 15.2914ZM15.5412 15.2914L15.4363 15.5183C15.5103 15.5526 15.5796 15.5958 15.6427 15.6468C15.6261 15.5216 15.5903 15.4029 15.5412 15.2914ZM13.9318 16.9051L14.1607 16.8044C14.1931 16.8781 14.2335 16.9468 14.2807 17.0094C14.1578 16.9925 14.0413 16.9557 13.9318 16.9051ZM13.9318 16.9051L13.8269 17.132C13.9269 17.1782 14.0336 17.2155 14.1465 17.2395C14.0588 17.1411 13.986 17.0283 13.9318 16.9051ZM13.4247 13.5838L12.825 13.3095L13.0922 13.9124C13.3196 14.4255 13.7911 14.8007 14.4322 14.8007C15.2417 14.8007 15.9044 14.1668 15.9044 13.3338C15.9044 12.7251 15.547 12.2052 15.0365 11.9693L14.4365 11.692L14.7028 12.297C14.7601 12.427 14.7935 12.564 14.7935 12.7077C14.7935 13.2269 14.3571 13.6746 13.8213 13.6746C13.685 13.6746 13.551 13.6415 13.4247 13.5838ZM16.4818 14.2091L15.882 13.9318L16.148 14.5367C16.3759 15.0548 16.8837 15.4267 17.4869 15.4267C18.3047 15.4267 18.9575 14.7494 18.9575 13.9246C18.9575 13.3203 18.6042 12.787 18.0736 12.5882L17.5181 12.3801L17.7571 12.9231C17.8143 13.053 17.8476 13.19 17.8476 13.3338C17.8476 13.8531 17.4116 14.3007 16.8759 14.3007C16.7389 14.3007 16.6075 14.2672 16.4818 14.2091ZM11.357 22.3691C10.8092 22.3691 10.3749 21.9501 10.3749 21.4022V21.0262H17.2678V21.4022C17.2678 21.9195 16.8287 22.3691 16.2856 22.3691C15.4727 22.3691 14.8035 23.0011 14.8035 23.8361V25.4643H12.8392V23.8361C12.8392 23.041 12.1747 22.3691 11.357 22.3691ZM6.67847 13.3611C6.67847 9.30975 9.88361 6.03571 13.8213 6.03571C17.759 6.03571 20.9642 9.30975 20.9642 13.3611C20.9642 15.8235 19.7707 17.9846 17.924 19.3092H9.68666C7.87236 17.9843 6.67847 15.8223 6.67847 13.3611Z" fill="#FFCF56" stroke="#3AB795" stroke-width="0.5"/>
</svg>
